<?xml version="1.0" encoding="utf-8"?>
<!-- Generator: Adobe Illustrator 18.1.0, SVG Export Plug-In . SVG Version: 6.00 Build 0)  -->
<!DOCTYPE svg PUBLIC "-//W3C//DTD SVG 1.1//EN" "http://www.w3.org/Graphics/SVG/1.1/DTD/svg11.dtd">
<svg version="1.1" id="Layer_1" xmlns="http://www.w3.org/2000/svg" xmlns:xlink="http://www.w3.org/1999/xlink" x="0px" y="0px"
	 viewBox="0 0 1000 1000" enable-background="new 0 0 1000 1000" xml:space="preserve">
<path fill="#FFFFFF" d="M999.7,478c0-141.2-93-258.1-213.5-277.8c-0.8-0.2-1.3-0.5-2.3-0.7c-21.9-4.5-20.9-23.6-20.9-23.6h0
	c0.1-13.5,0.2,0.2,0.3-13.4c0-0.9,0-1.6-0.1-2.5c0-3.3,0-6.7,0-10c0-3-0.8-5.6-1.2-8.5c0-0.1,0-0.1,0-0.1c-1-6.4-2-12.3-3.6-17.8
	c-0.2-0.2,0-0.4-0.2-0.5c-1.7-5.4-3.3-10.4-5.4-15c0-0.1-0.1-0.2-0.2-0.4c-10.8-23.3-26.7-36.3-37.5-42.1c-0.1-0.1-0.3-0.1-0.4-0.2
	c-3.3-1.5-6.6-3-10-4.5c-0.2-0.1-0.3-0.1-0.4-0.2c-166-73.4-346.8-73.7-512.8-0.6c-0.2,0.1-0.2,0.1-0.4,0.2c-3.3,1.4-6.6,2.9-10,4.4
	c-0.2,0.1-0.2,0.1-0.4,0.2c-11,5.8-26.5,18.8-37.5,42.1c-0.1,0.1-0.2,0.2-0.2,0.4c-2.1,4.6-4,9.6-5.5,15c-0.1,0.2-0.1,0.4-0.2,0.5
	c-1.7,5.5-2.9,11.4-3.7,17.8c0,0,0,0.1,0,0.1c-0.2,2.8-0.9,5.4-1.2,8.5c0,3.3,0.1,6.7,0.1,10c-0.3,0.9,0,1.6-0.2,2.5
	c1.6,233.9,3,399.3,4.6,633.5c-0.9,19.4-8.7,70.8-71.7,75.7c-4.4,0.4-29.3,1.2-33.8,1.6c-0.4,0-1,0.1-1.5,0.1c0,0.1,0,0.2,0,0.3
	c-0.4,0-1,0-1.4,0c-7.4,1.1-28.8,6.7-28.9,35.6c0,17.7,0,35.3,0,53C-0.5,989.6,20,994,28.2,994.7c0,0,0.2-0.1,0.2-0.2
	c0,0.1,0,0.1,0,0.2c265.7,0,568.4,0,834.1,0c0-0.2,0-0.3,0-0.5c0.1,0.1,0.2,0.3,0.2,0.4c8.2-0.7,28.4-5.1,28.5-32.9
	c0-17.6,0-35.3,0-53c0.1-28.9-21.6-34.5-28.9-35.6c-0.4,0-0.8-0.1-1.4-0.1v-0.2c-0.5,0-1-0.1-1.5-0.1c-4.3-0.4-24.6-1.1-29-1.5
	c-63.1-4.9-70.8-56.3-71.7-75.6c0.1-19.4,0.3,2.6,0.4-16.8c0-18.5,18-21.4,18-21.4l-0.1,0C901.9,742.4,999.7,622.9,999.7,478z
	 M619,327.3c0,44.6-36.1,80.7-80.7,80.7H357.7c-44.6,0-80.7-36.1-80.7-80.7v-80.7c0-44.6,36.1-80.7,80.7-80.7h180.7
	c44.6,0,80.7,36.1,80.7,80.7V327.3z M784,648.2c-19.6,4.5-23.6-10.7-24.1-19.6c0.7-100.3,1.3-200.5,2-300.8l0,0l0-2.9
	c0,0-0.4-20.5,14.9-19.6c64.7,15.6,113.7,87,113.7,172.6C890.6,560.4,845.1,629.2,784,648.2z"/>
</svg>
