<?xml version="1.0" encoding="utf-8"?>
<!-- Generator: Adobe Illustrator 18.1.0, SVG Export Plug-In . SVG Version: 6.00 Build 0)  -->
<!DOCTYPE svg PUBLIC "-//W3C//DTD SVG 1.1//EN" "http://www.w3.org/Graphics/SVG/1.1/DTD/svg11.dtd">
<svg version="1.1" id="Layer_1" xmlns="http://www.w3.org/2000/svg" xmlns:xlink="http://www.w3.org/1999/xlink" x="0px" y="0px"
	 viewBox="0 0 1000 1000" enable-background="new 0 0 1000 1000" xml:space="preserve">
<g>
	<path fill="#FFFFFF" d="M996.2,418.2L831.9,19.3c-10.3-25-45-25-55.2,0L708,185.9c-3.1,7.5-3.1,16-0.1,23.5l138.7,349.7
		c3,7.8,10.4,13,18.6,13l22.1,0c11,0,19.9-9.1,19.9-20.4v-69.7c0,0,1.2-21.5,19.3-21.5l42,0C990,460.7,1004.5,438.4,996.2,418.2z"/>
	<path fill="#FFFFFF" d="M528.1,21.6c-10.6-26.3-47-26.3-57.6,0L180,741.4c-8.5,21,6.6,44,28.8,44H371c17.2,0,31.2,14.3,31.2,31.8
		v151.5c0,17.6,14,31.8,31.2,31.8h131.9c17.2,0,31.2-14.2,31.2-31.8V817.2c0-17.6,14-31.8,31.2-31.8h162.2c22.2,0,37.3-23,28.8-44
		L528.1,21.6z"/>
	<path fill="#FFFFFF" d="M293,185.9L224.3,19.2c-10.3-25-45-25-55.2,0L4.8,418.2c-8.3,20.2,6.2,42.5,27.6,42.5l42.9,0
		c18.1,0,19.3,21.5,19.3,21.5v69.7c0,11.2,8.9,20.4,19.9,20.4l22.1,0c8.2,0,15.6-5.2,18.6-13l137.9-349.7
		C296.1,201.9,296.1,193.4,293,185.9z"/>
</g>
</svg>
