<?xml version="1.0" encoding="UTF-8"?>
<svg width="29px" height="29px" viewBox="0 0 29 29" version="1.1" xmlns="http://www.w3.org/2000/svg" xmlns:xlink="http://www.w3.org/1999/xlink">
    <!-- Generator: Sketch 52.6 (67491) - http://www.bohemiancoding.com/sketch -->
    <title>popular</title>
    <desc>Created with Sketch.</desc>
    <g id="Page-1" stroke="none" stroke-width="1" fill="none" fill-rule="evenodd">
        <g id="popular" fill="#FFFFFF">
            <path d="M28.9016493,10.9585253 C28.5166682,10.0230415 27.8750331,9.48847926 26.9767439,9.35483871 L21.2020278,8.41935484 C20.0470845,8.28571429 19.2771224,6.94930876 19.2771224,6.94930876 L16.7105819,1.47004608 C16.3256008,0.534562212 15.5556387,0 14.6573495,0 C13.7590603,0 12.9890982,0.668202765 12.6041171,1.60368664 L10.0375766,6.94930876 C10.0375766,6.94930876 9.1392874,8.41935484 7.086055,8.68663594 L2.08130101,9.22119816 C1.18301183,9.35483871 0.541376708,9.88940092 0.156395632,10.8248848 C-0.228585444,11.7603687 0.156395632,12.562212 0.669703733,13.3640553 L4.64784152,17.5069124 C4.64784152,17.5069124 5.80278474,18.7096774 5.54613069,20.5806452 L4.64784152,26.0599078 C4.51951449,26.9953917 4.77616854,27.797235 5.54613069,28.3317972 C6.18776582,28.8663594 7.21438202,28.8663594 7.98434417,28.4654378 L12.9890982,25.7926267 L13.3740792,25.6589862 C13.7590603,25.5253456 14.5290225,25.2580645 15.8122927,25.7926267 L21.0737008,28.5990783 C21.4586818,28.7327189 21.7153359,29 22.100317,29 C22.6136251,29 23.1269332,28.8663594 23.5119142,28.4654378 C24.1535494,27.9308756 24.5385304,26.9953917 24.4102034,26.1935484 L23.2552602,20.3133641 C23.1269332,18.843318 23.6402413,18.1751152 23.6402413,18.1751152 L28.2600142,13.4976959 C28.9016493,12.8294931 29.1583033,11.8940092 28.9016493,10.9585253 Z" id="Path"></path>
        </g>
    </g>
</svg>