<?xml version="1.0" encoding="utf-8"?>
<!-- Generator: Adobe Illustrator 18.1.0, SVG Export Plug-In . SVG Version: 6.00 Build 0)  -->
<!DOCTYPE svg PUBLIC "-//W3C//DTD SVG 1.1//EN" "http://www.w3.org/Graphics/SVG/1.1/DTD/svg11.dtd">
<svg version="1.1" id="Layer_1" xmlns="http://www.w3.org/2000/svg" xmlns:xlink="http://www.w3.org/1999/xlink" x="0px" y="0px"
	 viewBox="0 0 1000 1000" enable-background="new 0 0 1000 1000" xml:space="preserve">
<g>
	<path fill="#FFFFFF" d="M932.1,805H68.8c-37.2,0-67.3,22.5-67.3,50.2v96c0,27.7,30.2,50.2,67.3,50.2h863.3
		c37.2,0,67.3-22.5,67.3-50.2v-96C999.5,827.5,969.3,805,932.1,805z"/>
	<path fill="#FFFFFF" d="M35.7,590.2v11.3c0,40.3,28.1,73,62.7,73h804c34.7,0,62.7-32.7,62.7-73v-11.3c0-40.3-28.1-73-62.7-73H755.3
		l-123,94.1c-6.3-7.5-111.8-83-127.3-94.1H98.5C63.8,517.2,35.7,549.8,35.7,590.2z"/>
	<path fill="#FFFFFF" d="M930.3,122.9C685.7-39.5,312.7-39.2,68.7,124C46.3,141.8,3.2,189.8,1.4,292V353c0,24.5,26.7,44.4,59.7,44.4
		h878.7c32.9,0,59.6-19.9,59.6-44.4c0-23.3,0-40.3,0-55.3C999.5,188.6,952.6,139.9,930.3,122.9z"/>
</g>
</svg>
