<?xml version="1.0" encoding="utf-8"?>
<!-- Generator: Adobe Illustrator 18.1.0, SVG Export Plug-In . SVG Version: 6.00 Build 0)  -->
<!DOCTYPE svg PUBLIC "-//W3C//DTD SVG 1.1//EN" "http://www.w3.org/Graphics/SVG/1.1/DTD/svg11.dtd">
<svg version="1.1" id="Layer_1" xmlns="http://www.w3.org/2000/svg" xmlns:xlink="http://www.w3.org/1999/xlink" x="0px" y="0px"
	 viewBox="0 0 1000 1000" enable-background="new 0 0 1000 1000" xml:space="preserve">
<g>
	<circle fill="#FFFFFF" cx="579.7" cy="850.1" r="82.8"/>
	<circle fill="#FFFFFF" cx="256.1" cy="850.1" r="82.8"/>
	<path fill="#FFFFFF" d="M949.2,63.6H795.6c-22.3,0-41.9,14.9-47.7,36.5l-21.8,80.1v0l0,0l-0.2,0.6c-1,3.3-7.1,20.3-30,20.3H35.8
		c-11.4,0-22.2,5.3-29.3,14.3c-7,9-9.5,20.8-6.7,31.8l96.9,387.3c4.1,16.5,19,28.1,36,28.1h544.3c17,0,31.9-11.6,36-28.1l90.5-361.6
		l24.8-91.1c2.7-6.8,11-19.1,36.7-19.1h84.2c27.3,0,49.5-22.2,49.5-49.5C998.6,85.8,976.5,63.6,949.2,63.6z"/>
</g>
</svg>
