<?xml version="1.0" encoding="utf-8"?>
<!-- Generator: Adobe Illustrator 18.1.0, SVG Export Plug-In . SVG Version: 6.00 Build 0)  -->
<!DOCTYPE svg PUBLIC "-//W3C//DTD SVG 1.1//EN" "http://www.w3.org/Graphics/SVG/1.1/DTD/svg11.dtd">
<svg version="1.1" id="Layer_1" xmlns="http://www.w3.org/2000/svg" xmlns:xlink="http://www.w3.org/1999/xlink" x="0px" y="0px"
	 viewBox="0 0 1000 1000" enable-background="new 0 0 1000 1000" xml:space="preserve">
<g>
	<g>
		<path fill="#FFFFFF" d="M837.2,233.2h-16.5c-60.3,0-85.2-37.5-89-43.7c-0.3-0.6-0.5-1-0.5-1l0.1,0.1l-15-28.1
			c-8.2-12.8-33.9-43.8-89.9-43.8c-4.5,0-8.5,0.5-12.2-0.5H384.4c-3.6,1-7.6,0.5-12.2,0.5c-70.7,0-93.1,49.2-93.1,49.2l-0.1,0
			l-14.8,27.9c-8.6,11.7-34.1,39.4-86,39.4h-17.2c-89.4,0-162,72.2-162,161.6V718c0,89.4,72.5,162.2,162,162.2h676.2
			c89.4,0,161.9-72.8,161.9-162.2V394.8C999.1,305.4,926.7,233.2,837.2,233.2z M251.1,406.1c0,19.9-16.1,36-36,36h-68.9
			c-19.9,0-36-16.1-36-36v-34.9c0-19.9,16.1-36,36-36h68.9c19.9,0,36,16.1,36,36V406.1z M499.8,762.8c-113.8,0-206-92.2-206-206
			s92.2-206,206-206s206,92.2,206,206S613.5,762.8,499.8,762.8z"/>
	</g>
	<circle fill="#FFFFFF" cx="499.8" cy="556.8" r="107"/>
</g>
</svg>
